<mxfile host="app.diagrams.net" modified="2021-03-23T15:12:51.533Z" agent="5.0 (Macintosh; Intel Mac OS X 10_15_7) AppleWebKit/605.1.15 (KHTML, like Gecko) Version/14.0 Safari/605.1.15" etag="phQQj63wUazFlV2cACB0" version="14.5.0" type="github">
  <diagram id="C5RBs43oDa-KdzZeNtuy" name="Page-1">
    <mxGraphModel dx="1773" dy="637" grid="1" gridSize="10" guides="1" tooltips="1" connect="1" arrows="1" fold="1" page="1" pageScale="1" pageWidth="827" pageHeight="1169" math="0" shadow="0">
      <root>
        <mxCell id="WIyWlLk6GJQsqaUBKTNV-0" />
        <mxCell id="WIyWlLk6GJQsqaUBKTNV-1" parent="WIyWlLk6GJQsqaUBKTNV-0" />
        <mxCell id="arN9C5xPeOnL2nkCsYb7-0" value="&lt;h1&gt;Network Schema&lt;/h1&gt;&lt;div&gt;Dependencies :&amp;nbsp;&lt;/div&gt;&lt;div&gt;- Mirror&lt;/div&gt;&lt;div&gt;- Text Mesh&lt;/div&gt;" style="text;html=1;strokeColor=none;fillColor=none;spacing=5;spacingTop=-20;whiteSpace=wrap;overflow=hidden;rounded=0;" vertex="1" parent="WIyWlLk6GJQsqaUBKTNV-1">
          <mxGeometry x="480" y="20" width="230" height="120" as="geometry" />
        </mxCell>
        <mxCell id="arN9C5xPeOnL2nkCsYb7-7" value="" style="edgeStyle=orthogonalEdgeStyle;rounded=0;orthogonalLoop=1;jettySize=auto;html=1;" edge="1" parent="WIyWlLk6GJQsqaUBKTNV-1" source="arN9C5xPeOnL2nkCsYb7-3" target="arN9C5xPeOnL2nkCsYb7-8">
          <mxGeometry relative="1" as="geometry">
            <mxPoint x="260" y="120" as="targetPoint" />
          </mxGeometry>
        </mxCell>
        <mxCell id="arN9C5xPeOnL2nkCsYb7-3" value="Game Open" style="strokeWidth=2;html=1;shape=mxgraph.flowchart.terminator;whiteSpace=wrap;" vertex="1" parent="WIyWlLk6GJQsqaUBKTNV-1">
          <mxGeometry x="200" y="40" width="120" height="40" as="geometry" />
        </mxCell>
        <mxCell id="arN9C5xPeOnL2nkCsYb7-11" value="" style="edgeStyle=orthogonalEdgeStyle;rounded=0;orthogonalLoop=1;jettySize=auto;html=1;" edge="1" parent="WIyWlLk6GJQsqaUBKTNV-1" source="arN9C5xPeOnL2nkCsYb7-8" target="arN9C5xPeOnL2nkCsYb7-10">
          <mxGeometry relative="1" as="geometry" />
        </mxCell>
        <mxCell id="arN9C5xPeOnL2nkCsYb7-13" value="Success" style="edgeLabel;html=1;align=center;verticalAlign=middle;resizable=0;points=[];" vertex="1" connectable="0" parent="arN9C5xPeOnL2nkCsYb7-11">
          <mxGeometry x="0.073" y="-2" relative="1" as="geometry">
            <mxPoint as="offset" />
          </mxGeometry>
        </mxCell>
        <mxCell id="arN9C5xPeOnL2nkCsYb7-17" value="" style="edgeStyle=orthogonalEdgeStyle;rounded=0;orthogonalLoop=1;jettySize=auto;html=1;" edge="1" parent="WIyWlLk6GJQsqaUBKTNV-1" source="arN9C5xPeOnL2nkCsYb7-8" target="arN9C5xPeOnL2nkCsYb7-16">
          <mxGeometry relative="1" as="geometry" />
        </mxCell>
        <mxCell id="arN9C5xPeOnL2nkCsYb7-18" value="Fail" style="edgeLabel;html=1;align=center;verticalAlign=middle;resizable=0;points=[];" vertex="1" connectable="0" parent="arN9C5xPeOnL2nkCsYb7-17">
          <mxGeometry x="-0.4271" y="1" relative="1" as="geometry">
            <mxPoint as="offset" />
          </mxGeometry>
        </mxCell>
        <mxCell id="arN9C5xPeOnL2nkCsYb7-8" value="Connect&lt;br&gt;to Server" style="strokeWidth=2;html=1;shape=mxgraph.flowchart.decision;whiteSpace=wrap;" vertex="1" parent="WIyWlLk6GJQsqaUBKTNV-1">
          <mxGeometry x="200" y="120" width="120" height="80" as="geometry" />
        </mxCell>
        <mxCell id="arN9C5xPeOnL2nkCsYb7-21" style="edgeStyle=orthogonalEdgeStyle;rounded=0;orthogonalLoop=1;jettySize=auto;html=1;exitX=0.5;exitY=1;exitDx=0;exitDy=0;entryX=0.5;entryY=0;entryDx=0;entryDy=0;entryPerimeter=0;" edge="1" parent="WIyWlLk6GJQsqaUBKTNV-1" source="arN9C5xPeOnL2nkCsYb7-10" target="arN9C5xPeOnL2nkCsYb7-20">
          <mxGeometry relative="1" as="geometry" />
        </mxCell>
        <mxCell id="arN9C5xPeOnL2nkCsYb7-10" value="Authentication&lt;br&gt;Username,&lt;br&gt;Password" style="whiteSpace=wrap;html=1;strokeWidth=2;" vertex="1" parent="WIyWlLk6GJQsqaUBKTNV-1">
          <mxGeometry y="240" width="120" height="80" as="geometry" />
        </mxCell>
        <mxCell id="arN9C5xPeOnL2nkCsYb7-16" value="Checking Player&lt;br&gt;Connection" style="whiteSpace=wrap;html=1;strokeWidth=2;" vertex="1" parent="WIyWlLk6GJQsqaUBKTNV-1">
          <mxGeometry x="400" y="240" width="120" height="40" as="geometry" />
        </mxCell>
        <mxCell id="arN9C5xPeOnL2nkCsYb7-24" value="" style="edgeStyle=orthogonalEdgeStyle;rounded=0;orthogonalLoop=1;jettySize=auto;html=1;" edge="1" parent="WIyWlLk6GJQsqaUBKTNV-1" source="arN9C5xPeOnL2nkCsYb7-20" target="arN9C5xPeOnL2nkCsYb7-23">
          <mxGeometry relative="1" as="geometry" />
        </mxCell>
        <mxCell id="arN9C5xPeOnL2nkCsYb7-28" value="Not Authenticated" style="edgeLabel;html=1;align=center;verticalAlign=middle;resizable=0;points=[];" vertex="1" connectable="0" parent="arN9C5xPeOnL2nkCsYb7-24">
          <mxGeometry x="-0.2212" y="3" relative="1" as="geometry">
            <mxPoint as="offset" />
          </mxGeometry>
        </mxCell>
        <mxCell id="arN9C5xPeOnL2nkCsYb7-26" value="" style="edgeStyle=orthogonalEdgeStyle;rounded=0;orthogonalLoop=1;jettySize=auto;html=1;" edge="1" parent="WIyWlLk6GJQsqaUBKTNV-1" source="arN9C5xPeOnL2nkCsYb7-20" target="arN9C5xPeOnL2nkCsYb7-25">
          <mxGeometry relative="1" as="geometry" />
        </mxCell>
        <mxCell id="arN9C5xPeOnL2nkCsYb7-30" value="Authenticated" style="edgeLabel;html=1;align=center;verticalAlign=middle;resizable=0;points=[];" vertex="1" connectable="0" parent="arN9C5xPeOnL2nkCsYb7-26">
          <mxGeometry x="-0.3468" y="1" relative="1" as="geometry">
            <mxPoint as="offset" />
          </mxGeometry>
        </mxCell>
        <mxCell id="arN9C5xPeOnL2nkCsYb7-20" value="Play Fab" style="strokeWidth=2;html=1;shape=mxgraph.flowchart.database;whiteSpace=wrap;" vertex="1" parent="WIyWlLk6GJQsqaUBKTNV-1">
          <mxGeometry x="30" y="360" width="60" height="60" as="geometry" />
        </mxCell>
        <mxCell id="arN9C5xPeOnL2nkCsYb7-23" value="" style="whiteSpace=wrap;html=1;strokeWidth=2;" vertex="1" parent="WIyWlLk6GJQsqaUBKTNV-1">
          <mxGeometry x="-170" y="430" width="120" height="60" as="geometry" />
        </mxCell>
        <mxCell id="arN9C5xPeOnL2nkCsYb7-25" value="" style="whiteSpace=wrap;html=1;strokeWidth=2;" vertex="1" parent="WIyWlLk6GJQsqaUBKTNV-1">
          <mxGeometry x="160" y="440" width="120" height="60" as="geometry" />
        </mxCell>
        <mxCell id="arN9C5xPeOnL2nkCsYb7-32" value="" style="edgeStyle=orthogonalEdgeStyle;rounded=0;orthogonalLoop=1;jettySize=auto;html=1;" edge="1" parent="WIyWlLk6GJQsqaUBKTNV-1" source="arN9C5xPeOnL2nkCsYb7-31" target="arN9C5xPeOnL2nkCsYb7-10">
          <mxGeometry relative="1" as="geometry" />
        </mxCell>
        <mxCell id="arN9C5xPeOnL2nkCsYb7-31" value="" style="strokeWidth=2;html=1;shape=mxgraph.flowchart.annotation_2;align=left;labelPosition=right;pointerEvents=1;rotation=-180;" vertex="1" parent="WIyWlLk6GJQsqaUBKTNV-1">
          <mxGeometry x="-160" y="180" width="60" height="100" as="geometry" />
        </mxCell>
        <mxCell id="arN9C5xPeOnL2nkCsYb7-33" value="Return : {&lt;br&gt;Player Statistic,&lt;br&gt;Player Last Character,&lt;br&gt;Update&amp;nbsp;&lt;br&gt;&lt;br&gt;&lt;br&gt;}" style="text;html=1;strokeColor=none;fillColor=none;align=center;verticalAlign=middle;whiteSpace=wrap;rounded=0;" vertex="1" parent="WIyWlLk6GJQsqaUBKTNV-1">
          <mxGeometry x="-300" y="230" width="170" height="20" as="geometry" />
        </mxCell>
      </root>
    </mxGraphModel>
  </diagram>
</mxfile>
